# xmcd
#
# Track frame offsets:
#   150
#   28375
#   46927
#   63982
#   84693
#   102575
#   131918
#   148092
#   172310
#   199177
#   218875
#   231644
#   252408
#   274487
#   286772
#   304540
#   323474
#   330961
#
# Disc length: 4612 seconds
#
# Revision: 0
# Processed by: cddbd v1.5.1PL0 Copyright (c) Steve Scherf et al.
# Submitted via: uFREEDB 1.6.0
#
DISCID=1e120212
DTITLE=Mark Knopfler - Ragpickers Dream
DYEAR=1900
DGENRE=Blues
TTITLE0=Why Aye Man 
TTITLE1=Devil Baby 
TTITLE2=Hill Farmer's Blues 
TTITLE3=A Place Where We Used To Live 
TTITLE4=Quality Shoe 
TTITLE5=Fare Thee Well Northumberland 
TTITLE6=Marbletown 
TTITLE7=You Don't Know You're Born 
TTITLE8=Coyote 
TTITLE9=The Ragpicker's Dream 
TTITLE10=Daddy's Gone To Knoxville 
TTITLE11=Old Pigweed 
TTITLE12=
TTITLE13=
TTITLE14=
TTITLE15=
TTITLE16=
TTITLE17=
EXTD=
EXTT0=
EXTT1=
EXTT2=
EXTT3=
EXTT4=
EXTT5=
EXTT6=
EXTT7=
EXTT8=
EXTT9=
EXTT10=
EXTT11=
EXTT12=
EXTT13=
EXTT14=
EXTT15=
EXTT16=
EXTT17=
PLAYORDER=
